<svg width="36" height="37" viewBox="0 0 36 37" fill="none" xmlns="http://www.w3.org/2000/svg">
<path d="M19.9098 13.275V9.69729H16.4152V13.275H19.9098ZM19.9098 27.5028V16.8528H16.4152V27.5028H19.9098ZM5.59884 6.11956C9.09337 2.62503 13.2813 0.87776 18.1625 0.87776C23.0438 0.87776 27.2039 2.62503 30.643 6.11956C34.1375 9.55862 35.8848 13.7188 35.8848 18.6C35.8848 23.4813 34.1375 27.6692 30.643 31.1637C27.2039 34.6028 23.0438 36.3223 18.1625 36.3223C13.2813 36.3223 9.09337 34.6028 5.59884 31.1637C2.15978 27.6692 0.440249 23.4813 0.440249 18.6C0.440249 13.7188 2.15978 9.55862 5.59884 6.11956Z" fill="white"/>
</svg>
