<svg width="37" height="34" viewBox="0 0 37 34" fill="none" xmlns="http://www.w3.org/2000/svg">
<path d="M28.0102 21.0754C28.1211 21.1864 28.343 21.436 28.6758 21.8243C29.0641 22.1571 29.3137 22.379 29.4246 22.4899C29.5355 22.6008 29.7574 22.8504 30.0902 23.2387C30.4785 23.627 30.7004 23.9043 30.7559 24.0708C30.8668 24.1817 31.0887 24.4313 31.4215 24.8196C31.7543 25.2079 31.9207 25.4852 31.9207 25.6516C31.9762 25.818 32.1148 26.1231 32.3367 26.5668C32.6141 27.0106 32.6973 27.3434 32.5863 27.5653C32.5309 27.7317 32.5586 28.0645 32.6695 28.5637C32.8359 29.0075 32.8359 29.3403 32.6695 29.5622C32.0594 31.8918 30.6727 33.2786 28.5094 33.7223C28.1211 33.7778 26.7621 33.6668 24.4324 33.3895C22.1582 33.1122 20.2445 32.9735 18.6914 32.9735H18.3586C16.8055 32.9735 14.8641 33.1122 12.5344 33.3895C10.2602 33.6668 8.92891 33.7778 8.54063 33.7223C6.37735 33.2786 4.99063 31.8918 4.38047 29.5622C4.21406 28.4528 4.40821 27.3157 4.96289 26.1508C5.51758 24.986 6.0168 24.154 6.46055 23.6547C6.95977 23.1555 7.81953 22.2958 9.03985 21.0754C9.59453 20.4653 10.3156 19.6055 11.2031 18.4961C12.1461 17.3868 12.8949 16.527 13.4496 15.9168C14.448 14.6965 15.4742 13.92 16.5281 13.5872C16.75 13.4762 16.9441 13.4208 17.1105 13.4208C17.4434 13.3653 17.9148 13.3375 18.525 13.3375C19.1906 13.3375 19.6621 13.3653 19.9395 13.4208C20.1059 13.4208 20.3 13.4762 20.5219 13.5872C21.5758 13.92 22.602 14.6965 23.6004 15.9168C24.0996 16.527 24.8207 17.3868 25.7637 18.4961C26.7066 19.6055 27.4555 20.4653 28.0102 21.0754ZM28.6758 14.752C27.8438 13.8645 27.4277 12.8106 27.4277 11.5903C27.4277 10.37 27.8438 9.31607 28.6758 8.42857C29.5633 7.54107 30.6172 7.09732 31.8375 7.09732C33.0578 7.09732 34.084 7.54107 34.916 8.42857C35.8035 9.31607 36.2473 10.37 36.2473 11.5903C36.2473 12.8106 35.8035 13.8645 34.916 14.752C34.084 15.584 33.0578 16 31.8375 16C30.6172 16 29.5633 15.584 28.6758 14.752ZM20.6883 7.59653C19.8563 6.70903 19.4402 5.65513 19.4402 4.43482C19.4402 3.2145 19.8563 2.18833 20.6883 1.3563C21.5758 0.4688 22.6297 0.0250502 23.85 0.0250502C25.0703 0.0250502 26.0965 0.4688 26.9285 1.3563C27.816 2.18833 28.2598 3.2145 28.2598 4.43482C28.2598 5.65513 27.816 6.70903 26.9285 7.59653C26.0965 8.48403 25.0703 8.92778 23.85 8.92778C22.6297 8.92778 21.5758 8.48403 20.6883 7.59653ZM10.0383 7.59653C9.20625 6.70903 8.79024 5.65513 8.79024 4.43482C8.79024 3.2145 9.20625 2.18833 10.0383 1.3563C10.9258 0.4688 11.9797 0.0250502 13.2 0.0250502C14.4203 0.0250502 15.4465 0.4688 16.2785 1.3563C17.166 2.18833 17.6098 3.2145 17.6098 4.43482C17.6098 5.65513 17.166 6.70903 16.2785 7.59653C15.4465 8.48403 14.4203 8.92778 13.2 8.92778C11.9797 8.92778 10.9258 8.48403 10.0383 7.59653ZM2.05078 14.752C1.21875 13.8645 0.802737 12.8106 0.802737 11.5903C0.802737 10.37 1.21875 9.31607 2.05078 8.42857C2.93828 7.54107 3.99219 7.09732 5.2125 7.09732C6.43281 7.09732 7.45899 7.54107 8.29102 8.42857C9.17852 9.31607 9.62227 10.37 9.62227 11.5903C9.62227 12.8106 9.17852 13.8645 8.29102 14.752C7.45899 15.584 6.43281 16 5.2125 16C3.99219 16 2.93828 15.584 2.05078 14.752Z" fill="white"/>
</svg>
